<svg id="Layer_1" enable-background="new 0 0 512 512" height="512" viewBox="0 0 512 512" width="512" xmlns="http://www.w3.org/2000/svg"><g><path d="m468.241 168.5c-19.617 0-38.06 7.639-51.931 21.511l-9.905 9.904c-29.031-29.567-69.452-47.915-114.164-47.915h-96c-40.641 0-77.735 15.161-105.956 40.124l-2.113-2.113c-13.871-13.872-32.314-21.511-51.931-21.511-8.561 0-15.5 6.939-15.5 15.5s6.939 15.5 15.5 15.5c11.336 0 21.995 4.415 30.011 12.431l2.888 2.888c-20.631 26.941-32.899 60.626-32.899 97.181 0 61.002 34.142 114.024 84.355 141.017l-15.669 15.669c-6.248 6.249-6.248 16.379 0 22.628 3.125 3.124 7.219 4.686 11.314 4.686s8.189-1.562 11.314-4.686l25.277-25.277c13.804 3.882 28.363 5.963 43.409 5.963h96c15.045 0 29.604-2.081 43.409-5.963l25.277 25.277c3.125 3.124 7.219 4.686 11.314 4.686s8.189-1.562 11.314-4.686c6.248-6.249 6.248-16.379 0-22.628l-15.669-15.669c50.214-26.993 84.355-80.015 84.355-141.017 0-32.438-9.662-62.615-26.252-87.828l12.242-12.242c8.016-8.016 18.674-12.431 30.011-12.431 8.561 0 15.5-6.939 15.5-15.5s-6.94-15.499-15.501-15.499z" fill="#464646"/><g><circle cx="172.241" cy="136" fill="#82aa41" r="40"/></g><g><circle cx="160.241" cy="124" fill="#d7e6f0" r="12"/></g><g><path d="m388.241 184h-288c-13.255 0-24-10.745-24-24 0-13.255 10.745-24 24-24h288c13.255 0 24 10.745 24 24 0 13.255-10.745 24-24 24z" fill="#646464"/></g><g><path d="m62.607 224c-16.66 25.248-26.366 55.488-26.366 88h218.745c28.509 0 42.786-34.469 22.627-54.627l-33.372-33.373z" fill="#646464"/></g><g><circle cx="100.241" cy="264" fill="#d7e6f0" r="24"/></g><g><circle cx="332.241" cy="96" fill="#82aa41" r="24"/></g><g><circle cx="326.908" cy="90.667" fill="#d7e6f0" r="8"/></g><g><path d="m252.241 16c0 4.418-3.582 16-8 16s-8-11.582-8-16 3.582-8 8-8c4.419 0 8 3.582 8 8z" fill="#82aa41"/></g><g><path d="m220.528 25.072c3.826 2.209 12.066 11.102 9.856 14.928s-14.03 1.137-17.856-1.072-5.137-7.102-2.928-10.928 7.102-5.137 10.928-2.928z" fill="#82aa41"/></g><g><path d="m212.528 57.072c3.826-2.209 15.647-4.898 17.856-1.072s-6.03 12.719-9.856 14.928-8.719.898-10.928-2.928-.898-8.719 2.928-10.928z" fill="#82aa41"/></g><g><path d="m236.241 80c0-4.418 3.582-16 8-16s8 11.582 8 16-3.582 8-8 8-8-3.582-8-8z" fill="#82aa41"/></g><g><path d="m267.954 70.928c-3.826-2.209-12.066-11.102-9.856-14.928s14.03-1.137 17.856 1.072 5.137 7.102 2.928 10.928-7.102 5.137-10.928 2.928z" fill="#82aa41"/></g><g><path d="m275.954 38.928c-3.826 2.209-15.647 4.898-17.856 1.072s6.03-12.719 9.856-14.928 8.719-.898 10.928 2.928.898 8.719-2.928 10.928z" fill="#82aa41"/></g><g><path d="m276.241 136v72c0 8.837 7.163 16 16 16 8.837 0 16-7.163 16-16v-8c0-8.837 7.163-16 16-16 8.837 0 16 7.163 16 16v40c0 8.837 7.163 16 16 16 8.837 0 16-7.163 16-16v-104z" fill="#82aa41"/></g></g></svg>