<?xml version="1.0" encoding="iso-8859-1"?>
<!-- Generator: Adobe Illustrator 19.0.0, SVG Export Plug-In . SVG Version: 6.00 Build 0)  -->
<svg version="1.1" id="Capa_1" xmlns="http://www.w3.org/2000/svg" xmlns:xlink="http://www.w3.org/1999/xlink" x="0px" y="0px"
	 viewBox="0 0 512 512" style="enable-background:new 0 0 512 512;" xml:space="preserve">
<path style="fill:#303C42;" d="M394.667,170.667c20.417,0,74.667,0,74.667-53.333c0-14-13.115-23.281-24.677-31.469
	c-3.979-2.813-7.833-5.458-10.448-8.073c-2.229-2.229-4.802-6.104-7.542-10.198c-7.396-11.104-16.604-24.927-32-24.927
	c-3.333,0-10.667-15.469-10.667-32C384,4.771,379.229,0,373.333,0c-18.802,0-40.5,30.135-50.292,45.427
	c-6.875,4.177-25.615,16.865-34.083,35.49c-4.302,9.458-6.021,23.26-7.844,37.875c-2.094,16.802-4.698,37.708-11.323,44.333l-64,64
	C184.156,248.76,128,319.125,128,384c0,43.34,10.409,84.284,16.919,105.685c-39.953-4.68-59.586-28.816-59.586-73.685
	c0-27.448,11.948-53.344,23.51-78.385C118.698,316.26,128,296.094,128,277.333c0-32.385-3.292-64-42.667-64
	c-27.51,0-42.667,15.156-42.667,42.667c0,5.896,4.771,10.667,10.667,10.667S64,261.896,64,256c0-15.75,5.583-21.333,21.333-21.333
	c13.625,0,21.333,1.979,21.333,42.667c0,14.073-8.354,32.177-17.198,51.333C77.531,354.542,64,383.865,64,416
	c0,61.906,34.094,96,96,96h256c5.896,0,10.667-4.771,10.667-10.667V480c0-17.646-14.354-32-32-32H384v-96
	c0-26.823-5.646-50.344-11.104-73.083c-5.26-21.917-10.229-42.625-10.229-65.583C362.667,170.667,378.208,170.667,394.667,170.667z"
	/>
<path style="fill:#666666;" d="M352.156,283.896c5.406,22.521,10.51,43.802,10.51,68.104v106.667
	c0,5.896,4.771,10.667,10.667,10.667h21.333c5.885,0,10.667,4.781,10.667,10.667v10.667H320V480
	c0-16.24-12.156-29.688-27.854-31.729l3.396-3.396c24.74-24.74,31.313-59.313,17.573-92.469
	c-13.104-31.646-40.979-53.74-67.781-53.74c-5.896,0-10.667,4.771-10.667,10.667S239.438,320,245.333,320
	c17.823,0,38.49,17.438,48.073,40.573c4.958,11.958,13.615,42.656-12.948,69.219l-21.333,21.333
	c-3.052,3.052-3.969,7.635-2.313,11.625c1.646,3.99,5.542,6.583,9.854,6.583H288c5.885,0,10.667,4.781,10.667,10.667v10.667H167.615
	c-5.427-16.625-18.281-60.813-18.281-106.667c0-57.344,52.979-123.229,71.542-141.792l64-64
	c11.802-11.802,14.656-34.667,17.406-56.781c1.552-12.385,3.146-25.188,6.094-31.677c7.25-15.948,27.167-26.927,27.365-27.031
	c1.615-0.885,3-2.177,3.969-3.729c7.833-12.51,17.479-24.563,24.771-31.542C367.979,44.625,376.917,64,394.667,64
	c3.979,0,10.156,9.281,14.25,15.427c3.333,5,6.479,9.729,10.208,13.448c3.333,3.333,8.146,6.823,13.208,10.406
	c4.948,3.51,15.26,10.802,15.667,14.073c-0.01,26.74-19.563,31.979-53.333,31.979c-26.375,0-53.333,7.604-53.333,64
	C341.333,238.823,346.833,261.729,352.156,283.896z"/>
<path style="opacity:0.2;fill:#FFFFFF;enable-background:new    ;" d="M161.333,392.667c0-57.344,52.979-123.229,71.542-141.792
	l64-64c11.802-11.802,14.656-34.667,17.406-56.781c1.552-12.385,3.146-25.188,6.094-31.677c7.25-15.948,27.167-26.927,27.365-27.031
	c1.615-0.885,3-2.177,3.969-3.729c5.54-8.848,11.964-17.374,17.842-24.132c-2.268-5.15-3.975-10.695-5.072-16.077
	c-7.292,6.979-16.938,19.031-24.771,31.542c-0.969,1.552-2.354,2.844-3.969,3.729c-0.198,0.104-20.115,11.083-27.365,27.031
	c-2.948,6.49-4.542,19.292-6.094,31.677c-2.75,22.115-5.604,44.979-17.406,56.781l-64,64
	c-18.563,18.563-71.542,84.448-71.542,141.792c0,45.854,12.854,90.042,18.281,106.667h9.314
	C170.815,470.164,161.333,432.089,161.333,392.667z"/>
<linearGradient id="SVGID_1_" gradientUnits="userSpaceOnUse" x1="-43.1677" y1="638.3757" x2="-23.7056" y2="629.3036" gradientTransform="matrix(21.3333 0 0 -21.3333 996.3334 13791.667)">
	<stop  offset="0" style="stop-color:#FFFFFF;stop-opacity:0.2"/>
	<stop  offset="1" style="stop-color:#FFFFFF;stop-opacity:0"/>
</linearGradient>
<path style="fill:url(#SVGID_1_);" d="M394.667,170.667c20.417,0,74.667,0,74.667-53.333c0-14-13.115-23.281-24.677-31.469
	c-3.979-2.813-7.833-5.458-10.448-8.073c-2.229-2.229-4.802-6.104-7.542-10.198c-7.396-11.104-16.604-24.927-32-24.927
	c-3.333,0-10.667-15.469-10.667-32C384,4.771,379.229,0,373.333,0c-18.802,0-40.5,30.135-50.292,45.427
	c-6.875,4.177-25.615,16.865-34.083,35.49c-4.302,9.458-6.021,23.26-7.844,37.875c-2.094,16.802-4.698,37.708-11.323,44.333l-64,64
	C184.156,248.76,128,319.125,128,384c0,43.34,10.409,84.284,16.919,105.685c-39.953-4.68-59.586-28.816-59.586-73.685
	c0-27.448,11.948-53.344,23.51-78.385C118.698,316.26,128,296.094,128,277.333c0-32.385-3.292-64-42.667-64
	c-27.51,0-42.667,15.156-42.667,42.667c0,5.896,4.771,10.667,10.667,10.667S64,261.896,64,256c0-15.75,5.583-21.333,21.333-21.333
	c13.625,0,21.333,1.979,21.333,42.667c0,14.073-8.354,32.177-17.198,51.333C77.531,354.542,64,383.865,64,416
	c0,61.906,34.094,96,96,96h256c5.896,0,10.667-4.771,10.667-10.667V480c0-17.646-14.354-32-32-32H384v-96
	c0-26.823-5.646-50.344-11.104-73.083c-5.26-21.917-10.229-42.625-10.229-65.583C362.667,170.667,378.208,170.667,394.667,170.667z"
	/>
<g>
</g>
<g>
</g>
<g>
</g>
<g>
</g>
<g>
</g>
<g>
</g>
<g>
</g>
<g>
</g>
<g>
</g>
<g>
</g>
<g>
</g>
<g>
</g>
<g>
</g>
<g>
</g>
<g>
</g>
</svg>
