<?xml version="1.0" encoding="iso-8859-1"?>
<!-- Generator: Adobe Illustrator 19.0.0, SVG Export Plug-In . SVG Version: 6.00 Build 0)  -->
<svg version="1.1" id="Capa_1" xmlns="http://www.w3.org/2000/svg" xmlns:xlink="http://www.w3.org/1999/xlink" x="0px" y="0px"
	 viewBox="0 0 469.333 469.333" style="enable-background:new 0 0 469.333 469.333;" xml:space="preserve">
<path style="fill:#303C42;" d="M188.208,389c-4.135-3.792-8.313-7.573-11.75-11.75c-0.823-1.073-2.26-5.094-3.313-8.021
	c-4.833-13.479-13.823-38.563-45.156-38.563c-31.313,0-40.302,25.083-45.135,38.552c-1.052,2.927-2.49,6.948-3.302,8.01
	c-3.458,4.208-7.635,7.979-11.781,11.771c-11.625,10.667-24.813,22.75-25.104,42.854c-0.146,10.813,3.219,20.01,9.729,26.615
	c7,7.104,17.26,10.865,29.656,10.865c13.885,0,22.542-4.625,29.5-8.333c5.667-3.021,9.76-5.208,16.438-5.208
	c6.688,0,10.781,2.188,16.448,5.208c6.958,3.708,15.625,8.333,29.51,8.333c12.396,0,22.646-3.76,29.656-10.865
	c6.51-6.604,9.875-15.802,9.729-26.625C213.042,411.75,199.854,399.656,188.208,389z"/>
<path style="fill:#6D4C41;" d="M188.417,443.49c-3.677,3.729-9.896,4.51-14.469,4.51c-8.552,0-13.375-2.573-19.469-5.823
	c-6.781-3.615-14.469-7.719-26.479-7.719c-12.021,0-19.708,4.104-26.49,7.719C95.417,445.427,90.594,448,82.052,448
	c-4.573,0-10.792-0.781-14.469-4.51c-2.448-2.479-3.656-6.292-3.583-11.333c0.156-10.896,8.51-18.552,18.188-27.427
	c4.885-4.469,9.76-8.99,13.844-13.958c3.115-3.792,4.875-8.688,6.906-14.354c5.281-14.75,9.885-24.417,25.052-24.417
	c15.188,0,19.781,9.677,25.073,24.427c2.031,5.667,3.781,10.552,6.896,14.354c4.083,4.958,8.958,9.469,13.844,13.948
	c9.677,8.865,18.042,16.531,18.198,27.417C192.073,437.188,190.865,441.01,188.417,443.49z"/>
<path style="opacity:0.1;enable-background:new    ;" d="M186.745,418.15c-0.59,1.531-1.286,2.952-2.328,4.007
	c-3.677,3.729-9.896,4.51-14.469,4.51c-8.552,0-13.375-2.573-19.469-5.823c-6.781-3.615-14.469-7.719-26.479-7.719
	c-12.021,0-19.708,4.104-26.489,7.719c-6.094,3.25-10.917,5.823-19.458,5.823c-3.727,0-8.27-0.948-11.915-3.159
	c-1.233,2.699-2.092,5.521-2.137,8.648c-0.073,5.042,1.135,8.854,3.583,11.333c3.677,3.729,9.896,4.51,14.469,4.51
	c8.542,0,13.365-2.573,19.458-5.823c6.781-3.615,14.469-7.719,26.49-7.719c12.01,0,19.698,4.104,26.479,7.719
	c6.094,3.25,10.917,5.823,19.469,5.823c4.573,0,10.792-0.781,14.469-4.51c2.448-2.479,3.656-6.302,3.583-11.344
	C191.925,426.891,189.871,422.402,186.745,418.15z"/>
<path style="fill:#303C42;" d="M230.104,298.667c-16.677,0-32.594,17.479-37.021,40.677c-0.74,3.865-1.083,7.594-1.083,11.115
	c-0.01,8.646,2.021,16.333,5.875,22.229c4.688,7.188,11.99,11.313,20.021,11.313c16.677,0,32.594-17.479,37.021-40.667
	c0,0,0,0,0-0.01c0.74-3.865,1.083-7.604,1.083-11.125c0.01-8.646-2.021-16.333-5.875-22.229
	C245.438,302.792,238.135,298.667,230.104,298.667z"/>
<path style="fill:#6D4C41;" d="M233.958,339.344c-2.677,14.021-11.438,23.323-16.063,23.323c-0.354,0-1.094,0-2.156-1.635
	c-1.531-2.354-2.406-6.198-2.406-10.563c0-2.26,0.24-4.656,0.708-7.135C216.719,329.302,225.479,320,230.104,320
	c0.354,0,1.094,0,2.156,1.635c1.531,2.344,2.406,6.188,2.406,10.552C234.667,334.448,234.427,336.854,233.958,339.344z"/>
<path style="opacity:0.1;enable-background:new    ;" d="M232.26,321.635C231.198,320,230.458,320,230.104,320
	c-0.156,0-0.385,0.204-0.551,0.225c-0.103,1.605-0.164,3.193-0.484,4.896c-2.587,13.548-10.785,22.496-15.512,23.098
	c-0.048,0.738-0.224,1.538-0.224,2.25c0,4.365,0.875,8.208,2.406,10.563c1.063,1.635,1.802,1.635,2.156,1.635
	c4.625,0,13.385-9.302,16.063-23.323c0.469-2.49,0.708-4.896,0.708-7.156C234.667,327.823,233.792,323.979,232.26,321.635z"/>
<path style="fill:#303C42;" d="M169.25,309.333c19.458,0,38.365-20.25,43.042-46.104v-0.021c0.604-3.396,0.938-6.698,1.031-9.917
	c0.302-12.938-3.49-24.115-10.688-31.49c-5.406-5.542-12.292-8.469-19.885-8.469c-19.458,0-38.365,20.25-43.042,46.125
	c-0.604,3.396-0.938,6.698-1.031,9.917c-0.302,12.938,3.49,24.115,10.688,31.49C154.771,306.406,161.656,309.333,169.25,309.333z"/>
<path style="fill:#6D4C41;" d="M160.708,263.229c2.958-16.344,14.073-28.563,22.042-28.563c1.792,0,3.26,0.646,4.625,2.042
	c3.052,3.135,4.781,9.146,4.615,16.042c-0.052,2.156-0.281,4.396-0.698,6.708c-3.635,20-19.271,34.083-26.667,26.5
	c-3.052-3.135-4.781-9.146-4.615-16.042C160.063,267.76,160.292,265.521,160.708,263.229z"/>
<path style="opacity:0.1;enable-background:new    ;" d="M187.375,236.708c-0.932-0.954-2.063-1.109-3.161-1.396
	c0.021,0.668,0.237,1.194,0.22,1.882c-0.052,2.156-0.281,4.396-0.698,6.708c-3.169,17.435-15.453,30.352-23.452,28.359
	c0.259,5.818,1.668,10.951,4.341,13.697c7.396,7.583,23.031-6.5,26.667-26.5c0.417-2.313,0.646-4.552,0.698-6.708
	C192.156,245.854,190.427,239.844,187.375,236.708z"/>
<path style="fill:#303C42;" d="M58.125,372.688c3.854-5.896,5.885-13.583,5.875-22.219c0-3.531-0.344-7.26-1.083-11.135
	c-4.427-23.188-20.344-40.667-37.021-40.667c-8.031,0-15.333,4.125-20.021,11.302C2.021,315.865-0.01,323.552,0,332.188
	c0,3.531,0.344,7.271,1.083,11.135c0,0.01,0,0.01,0,0.01C5.51,366.521,21.427,384,38.104,384
	C46.135,384,53.438,379.875,58.125,372.688z"/>
<path style="fill:#6D4C41;" d="M40.26,361.031c-1.063,1.635-1.802,1.635-2.156,1.635c-4.625,0-13.385-9.302-16.062-23.323
	c-0.469-2.49-0.708-4.896-0.708-7.167c0-4.354,0.875-8.198,2.406-10.542C24.802,320,25.542,320,25.896,320
	c4.625,0,13.385,9.302,16.063,23.323c0.469,2.49,0.708,4.885,0.708,7.156C42.667,354.833,41.792,358.677,40.26,361.031z"/>
<path style="opacity:0.1;enable-background:new    ;" d="M41.958,343.323c-2.118-11.094-7.978-19.013-12.651-21.927
	c1.678,3.288,3.16,6.945,3.984,11.26c0.469,2.49,0.708,4.885,0.708,7.156c0,4.354-0.875,8.198-2.406,10.552
	C30.531,352,29.792,352,29.438,352c-0.966,0-2.178-0.628-3.411-1.397c3.776,7.395,8.876,12.064,12.078,12.064
	c0.354,0,1.094,0,2.156-1.635c1.531-2.354,2.406-6.198,2.406-10.552C42.667,348.208,42.427,345.813,41.958,343.323z"/>
<path style="fill:#303C42;" d="M43.708,263.229c4.677,25.854,23.583,46.104,43.042,46.104c7.594,0,14.479-2.927,19.885-8.469
	c7.198-7.375,10.99-18.552,10.688-31.531c-0.094-3.177-0.427-6.479-1.031-9.896c-4.677-25.854-23.583-46.104-43.042-46.104
	c-7.594,0-14.479,2.927-19.885,8.469c-7.198,7.375-10.99,18.552-10.688,31.531c0.094,3.177,0.427,6.479,1.031,9.875V263.229z"/>
<path style="fill:#6D4C41;" d="M68.625,236.708c7.417-7.583,23.052,6.51,26.667,26.5c0.417,2.313,0.646,4.552,0.698,6.667
	c0.167,6.938-1.563,12.948-4.615,16.083c-7.438,7.625-23.042-6.479-26.667-26.5c-0.417-2.313-0.646-4.552-0.698-6.667
	C63.844,245.854,65.573,239.844,68.625,236.708z"/>
<path style="opacity:0.1;enable-background:new    ;" d="M95.292,263.208c-1.789-9.893-6.527-18.318-11.751-23.409
	c0.826,2.353,1.507,4.824,1.974,7.409c0.417,2.313,0.646,4.552,0.698,6.667c0.167,6.938-1.563,12.948-4.615,16.083
	c-3.75,3.845-9.573,2.145-14.893-3.033c5.57,15.84,18.202,25.665,24.671,19.033c3.052-3.135,4.781-9.146,4.615-16.083
	C95.938,267.76,95.708,265.521,95.292,263.208z"/>
<path style="fill:#303C42;" d="M401.542,175.667c-4.135-3.792-8.313-7.573-11.75-11.75c-0.823-1.073-2.26-5.094-3.313-8.021
	c-4.833-13.479-13.823-38.563-45.156-38.563c-31.313,0-40.302,25.083-45.135,38.552c-1.052,2.927-2.49,6.948-3.302,8.01
	c-3.458,4.208-7.635,7.979-11.781,11.771c-11.625,10.667-24.813,22.75-25.104,42.854c-0.146,10.813,3.219,20.01,9.729,26.615
	c7,7.104,17.26,10.865,29.656,10.865c13.885,0,22.542-4.625,29.5-8.333c5.667-3.021,9.76-5.208,16.438-5.208
	c6.688,0,10.781,2.188,16.448,5.208c6.958,3.708,15.625,8.333,29.51,8.333c12.396,0,22.646-3.76,29.656-10.865
	c6.51-6.604,9.875-15.802,9.729-26.625C426.375,198.417,413.188,186.323,401.542,175.667z"/>
<path style="fill:#6D4C41;" d="M401.75,230.156c-3.677,3.729-9.896,4.51-14.469,4.51c-8.552,0-13.375-2.573-19.469-5.823
	c-6.781-3.615-14.469-7.719-26.479-7.719c-12.021,0-19.708,4.104-26.49,7.719c-6.094,3.25-10.917,5.823-19.458,5.823
	c-4.573,0-10.792-0.781-14.469-4.51c-2.448-2.479-3.656-6.292-3.583-11.333c0.156-10.896,8.51-18.552,18.188-27.427
	c4.885-4.469,9.76-8.99,13.844-13.958c3.115-3.792,4.875-8.688,6.906-14.354c5.281-14.75,9.885-24.417,25.052-24.417
	c15.188,0,19.781,9.677,25.073,24.427c2.031,5.667,3.781,10.552,6.896,14.354c4.083,4.958,8.958,9.469,13.844,13.948
	c9.677,8.865,18.042,16.531,18.198,27.417C405.406,223.854,404.198,227.677,401.75,230.156z"/>
<path style="opacity:0.1;enable-background:new    ;" d="M400.078,204.816c-0.59,1.531-1.286,2.952-2.328,4.007
	c-3.677,3.729-9.896,4.51-14.469,4.51c-8.552,0-13.375-2.573-19.469-5.823c-6.781-3.615-14.469-7.719-26.479-7.719
	c-12.021,0-19.708,4.104-26.49,7.719c-6.094,3.25-10.917,5.823-19.458,5.823c-3.727,0-8.27-0.948-11.915-3.159
	c-1.233,2.699-2.092,5.521-2.137,8.648c-0.073,5.042,1.135,8.854,3.583,11.333c3.677,3.729,9.896,4.51,14.469,4.51
	c8.542,0,13.365-2.573,19.458-5.823c6.781-3.615,14.469-7.719,26.49-7.719c12.01,0,19.698,4.104,26.479,7.719
	c6.094,3.25,10.917,5.823,19.469,5.823c4.573,0,10.792-0.781,14.469-4.51c2.448-2.479,3.656-6.302,3.583-11.344
	C405.258,213.557,403.204,209.069,400.078,204.816z"/>
<path style="fill:#303C42;" d="M443.438,85.333c-16.677,0-32.594,17.479-37.021,40.677c-0.74,3.865-1.083,7.594-1.083,11.115
	c-0.01,8.646,2.021,16.333,5.875,22.229c4.688,7.188,11.99,11.313,20.021,11.313c16.677,0,32.594-17.479,37.021-40.667
	c0,0,0,0,0-0.01c0.74-3.865,1.083-7.604,1.083-11.125c0.01-8.646-2.021-16.333-5.875-22.229
	C458.771,89.458,451.469,85.333,443.438,85.333z"/>
<path style="fill:#6D4C41;" d="M447.292,126.01c-2.677,14.021-11.438,23.323-16.063,23.323c-0.354,0-1.094,0-2.156-1.635
	c-1.531-2.354-2.406-6.198-2.406-10.563c0-2.26,0.24-4.656,0.708-7.135c2.677-14.031,11.438-23.333,16.063-23.333
	c0.354,0,1.094,0,2.156,1.635c1.531,2.344,2.406,6.188,2.406,10.552C448,121.115,447.76,123.521,447.292,126.01z"/>
<path style="opacity:0.1;enable-background:new    ;" d="M445.594,108.302c-1.063-1.635-1.802-1.635-2.156-1.635
	c-0.156,0-0.385,0.204-0.551,0.225c-0.103,1.605-0.164,3.193-0.484,4.896c-2.587,13.548-10.785,22.496-15.512,23.098
	c-0.048,0.738-0.224,1.538-0.224,2.25c0,4.365,0.875,8.208,2.406,10.563c1.063,1.635,1.802,1.635,2.156,1.635
	c4.625,0,13.385-9.302,16.063-23.323c0.469-2.49,0.708-4.896,0.708-7.156C448,114.49,447.125,110.646,445.594,108.302z"/>
<path style="fill:#303C42;" d="M382.583,96c19.458,0,38.365-20.25,43.042-46.104v-0.021c0.604-3.396,0.938-6.698,1.031-9.917
	c0.302-12.938-3.49-24.115-10.688-31.49C410.563,2.927,403.677,0,396.083,0c-19.458,0-38.365,20.25-43.042,46.125
	c-0.604,3.396-0.938,6.698-1.031,9.917c-0.302,12.938,3.49,24.115,10.688,31.49C368.104,93.073,374.99,96,382.583,96z"/>
<path style="fill:#6D4C41;" d="M374.042,49.896c2.958-16.344,14.073-28.563,22.042-28.563c1.792,0,3.26,0.646,4.625,2.042
	c3.052,3.135,4.781,9.146,4.615,16.042c-0.052,2.156-0.281,4.396-0.698,6.708c-3.635,20-19.271,34.083-26.667,26.5
	c-3.052-3.135-4.781-9.146-4.615-16.042C373.396,54.427,373.625,52.188,374.042,49.896z"/>
<path style="opacity:0.1;enable-background:new    ;" d="M400.708,23.375c-0.932-0.954-2.063-1.109-3.161-1.396
	c0.021,0.668,0.237,1.194,0.22,1.882c-0.052,2.156-0.281,4.396-0.698,6.708c-3.169,17.435-15.453,30.352-23.452,28.359
	c0.259,5.818,1.668,10.951,4.341,13.697c7.396,7.583,23.031-6.5,26.667-26.5c0.417-2.313,0.646-4.552,0.698-6.708
	C405.49,32.521,403.76,26.51,400.708,23.375z"/>
<path style="fill:#303C42;" d="M271.458,159.354c3.854-5.896,5.885-13.583,5.875-22.219c0-3.531-0.344-7.26-1.083-11.135
	c-4.427-23.188-20.344-40.667-37.021-40.667c-8.031,0-15.333,4.125-20.021,11.302c-3.854,5.896-5.885,13.583-5.875,22.219
	c0,3.531,0.344,7.271,1.083,11.135c0,0.01,0,0.01,0,0.01c4.427,23.188,20.344,40.667,37.021,40.667
	C259.469,170.667,266.771,166.542,271.458,159.354z"/>
<path style="fill:#6D4C41;" d="M253.594,147.698c-1.063,1.635-1.802,1.635-2.156,1.635c-4.625,0-13.385-9.302-16.063-23.323
	c-0.469-2.49-0.708-4.896-0.708-7.167c0-4.354,0.875-8.198,2.406-10.542c1.063-1.635,1.802-1.635,2.156-1.635
	c4.625,0,13.385,9.302,16.063,23.323c0.469,2.49,0.708,4.885,0.708,7.156C256,141.5,255.125,145.344,253.594,147.698z"/>
<path style="opacity:0.1;enable-background:new    ;" d="M255.292,129.99c-2.118-11.094-7.978-19.013-12.651-21.927
	c1.678,3.288,3.16,6.945,3.984,11.26c0.469,2.49,0.708,4.885,0.708,7.156c0,4.354-0.875,8.198-2.406,10.552
	c-1.063,1.635-1.802,1.635-2.156,1.635c-0.966,0-2.178-0.628-3.411-1.397c3.776,7.395,8.876,12.064,12.078,12.064
	c0.354,0,1.094,0,2.156-1.635c1.531-2.354,2.406-6.198,2.406-10.552C256,134.875,255.76,132.479,255.292,129.99z"/>
<path style="fill:#303C42;" d="M257.042,49.896C261.719,75.75,280.625,96,300.083,96c7.594,0,14.479-2.927,19.885-8.469
	c7.198-7.375,10.99-18.552,10.688-31.531c-0.094-3.177-0.427-6.479-1.031-9.896C324.948,20.25,306.042,0,286.583,0
	c-7.594,0-14.479,2.927-19.885,8.469C259.5,15.844,255.708,27.021,256.01,40c0.094,3.177,0.427,6.479,1.031,9.875V49.896z"/>
<path style="fill:#6D4C41;" d="M281.958,23.375c7.417-7.583,23.052,6.51,26.667,26.5c0.417,2.313,0.646,4.552,0.698,6.667
	c0.167,6.938-1.563,12.948-4.615,16.083c-7.438,7.625-23.042-6.479-26.667-26.5c-0.417-2.313-0.646-4.552-0.698-6.667
	C277.177,32.521,278.906,26.51,281.958,23.375z"/>
<path style="opacity:0.1;enable-background:new    ;" d="M308.625,49.875c-1.789-9.893-6.527-18.318-11.751-23.409
	c0.826,2.353,1.507,4.824,1.974,7.409c0.417,2.313,0.646,4.552,0.698,6.667c0.167,6.938-1.563,12.948-4.615,16.083
	c-3.75,3.845-9.573,2.145-14.893-3.033c5.57,15.84,18.202,25.665,24.671,19.033c3.052-3.135,4.781-9.146,4.615-16.083
	C309.271,54.427,309.042,52.188,308.625,49.875z"/>
<linearGradient id="SVGID_1_" gradientUnits="userSpaceOnUse" x1="-63.4915" y1="616.668" x2="-48.7365" y2="609.788" gradientTransform="matrix(21.3333 0 0 -21.3333 1430.1104 13315.2236)">
	<stop  offset="0" style="stop-color:#FFFFFF;stop-opacity:0.2"/>
	<stop  offset="1" style="stop-color:#FFFFFF;stop-opacity:0"/>
</linearGradient>
<path style="fill:url(#SVGID_1_);" d="M188.208,389c-4.135-3.792-8.313-7.573-11.75-11.75c-0.823-1.073-2.26-5.094-3.313-8.021
	c-4.833-13.479-13.823-38.563-45.156-38.563c-31.313,0-40.302,25.083-45.135,38.552c-1.052,2.927-2.49,6.948-3.302,8.01
	c-3.458,4.208-7.635,7.979-11.781,11.771c-11.625,10.667-24.813,22.75-25.104,42.854c-0.146,10.813,3.219,20.01,9.729,26.615
	c7,7.104,17.26,10.865,29.656,10.865c13.885,0,22.542-4.625,29.5-8.333c5.667-3.021,9.76-5.208,16.438-5.208
	c6.688,0,10.781,2.188,16.448,5.208c6.958,3.708,15.625,8.333,29.51,8.333c12.396,0,22.646-3.76,29.656-10.865
	c6.51-6.604,9.875-15.802,9.729-26.625C213.042,411.75,199.854,399.656,188.208,389z M230.104,298.667
	c-16.677,0-32.594,17.479-37.021,40.677c-0.74,3.865-1.083,7.594-1.083,11.115c-0.01,8.646,2.021,16.333,5.875,22.229
	c4.688,7.188,11.99,11.313,20.021,11.313c16.677,0,32.594-17.479,37.021-40.667c0,0,0,0,0-0.01c0.74-3.865,1.083-7.604,1.083-11.125
	c0.01-8.646-2.021-16.333-5.875-22.229C245.438,302.792,238.135,298.667,230.104,298.667z M169.25,309.333
	c19.458,0,38.365-20.25,43.042-46.104v-0.021c0.604-3.396,0.938-6.698,1.031-9.917c0.302-12.938-3.49-24.115-10.688-31.49
	c-5.406-5.542-12.292-8.469-19.885-8.469c-19.458,0-38.365,20.25-43.042,46.125c-0.604,3.396-0.938,6.698-1.031,9.917
	c-0.302,12.938,3.49,24.115,10.688,31.49C154.771,306.406,161.656,309.333,169.25,309.333z M58.125,372.688
	c3.854-5.896,5.885-13.583,5.875-22.219c0-3.531-0.344-7.26-1.083-11.135c-4.427-23.188-20.344-40.667-37.021-40.667
	c-8.031,0-15.333,4.125-20.021,11.302C2.021,315.865-0.01,323.552,0,332.188c0,3.531,0.344,7.271,1.083,11.135c0,0.01,0,0.01,0,0.01
	C5.51,366.521,21.427,384,38.104,384C46.135,384,53.438,379.875,58.125,372.688z M43.708,263.229
	c4.677,25.854,23.583,46.104,43.042,46.104c7.594,0,14.479-2.927,19.885-8.469c7.198-7.375,10.99-18.552,10.688-31.531
	c-0.094-3.177-0.427-6.479-1.031-9.896c-4.677-25.854-23.583-46.104-43.042-46.104c-7.594,0-14.479,2.927-19.885,8.469
	c-7.198,7.375-10.99,18.552-10.688,31.531c0.094,3.177,0.427,6.479,1.031,9.875V263.229z M401.542,175.667
	c-4.135-3.792-8.313-7.573-11.75-11.75c-0.823-1.073-2.26-5.094-3.313-8.021c-4.833-13.479-13.823-38.563-45.156-38.563
	c-31.313,0-40.302,25.083-45.135,38.552c-1.052,2.927-2.49,6.948-3.302,8.01c-3.458,4.208-7.635,7.979-11.781,11.771
	c-11.625,10.667-24.813,22.75-25.104,42.854c-0.146,10.813,3.219,20.01,9.729,26.615c7,7.104,17.26,10.865,29.656,10.865
	c13.885,0,22.542-4.625,29.5-8.333c5.667-3.021,9.76-5.208,16.438-5.208c6.688,0,10.781,2.188,16.448,5.208
	c6.958,3.708,15.625,8.333,29.51,8.333c12.396,0,22.646-3.76,29.656-10.865c6.51-6.604,9.875-15.802,9.729-26.625
	C426.375,198.417,413.188,186.323,401.542,175.667z M463.458,96.635c-4.688-7.177-11.99-11.302-20.021-11.302
	c-16.677,0-32.594,17.479-37.021,40.677c-0.74,3.865-1.083,7.594-1.083,11.115c-0.01,8.646,2.021,16.333,5.875,22.229
	c4.688,7.188,11.99,11.313,20.021,11.313c16.677,0,32.594-17.479,37.021-40.667c0,0,0,0,0-0.01c0.74-3.865,1.083-7.604,1.083-11.125
	C469.344,110.219,467.313,102.531,463.458,96.635z M382.583,96c19.458,0,38.365-20.25,43.042-46.104v-0.021
	c0.604-3.396,0.938-6.698,1.031-9.917c0.302-12.938-3.49-24.115-10.688-31.49C410.563,2.927,403.677,0,396.083,0
	c-19.458,0-38.365,20.25-43.042,46.125c-0.604,3.396-0.938,6.698-1.031,9.917c-0.302,12.938,3.49,24.115,10.688,31.49
	C368.104,93.073,374.99,96,382.583,96z M214.417,130c4.427,23.188,20.344,40.667,37.021,40.667c8.031,0,15.333-4.125,20.021-11.313
	c3.854-5.896,5.885-13.583,5.875-22.219c0-3.531-0.344-7.26-1.083-11.135c-4.427-23.188-20.344-40.667-37.021-40.667
	c-8.031,0-15.333,4.125-20.021,11.302c-3.854,5.896-5.885,13.583-5.875,22.219c0,3.531,0.344,7.271,1.083,11.135
	C214.417,130,214.417,130,214.417,130z M257.042,49.896C261.719,75.75,280.625,96,300.083,96c7.594,0,14.479-2.927,19.885-8.469
	c7.198-7.375,10.99-18.552,10.688-31.531c-0.094-3.177-0.427-6.479-1.031-9.896C324.948,20.25,306.042,0,286.583,0
	c-7.594,0-14.479,2.927-19.885,8.469C259.5,15.844,255.708,27.021,256.01,40c0.094,3.177,0.427,6.479,1.031,9.875V49.896z"/>
<g>
</g>
<g>
</g>
<g>
</g>
<g>
</g>
<g>
</g>
<g>
</g>
<g>
</g>
<g>
</g>
<g>
</g>
<g>
</g>
<g>
</g>
<g>
</g>
<g>
</g>
<g>
</g>
<g>
</g>
</svg>
